{
 "cells": [
  {
   "cell_type": "markdown",
   "metadata": {},
   "source": [
    "# Convert Data"
   ]
  },
  {
   "cell_type": "code",
   "execution_count": 13,
   "metadata": {},
   "outputs": [
    {
     "name": "stdout",
     "output_type": "stream",
     "text": [
      "Requirement already satisfied: EbookLib in /home/solaris/miniconda3/envs/jhana_ai/lib/python3.10/site-packages (0.18)\n",
      "Requirement already satisfied: PyMuPDF in /home/solaris/miniconda3/envs/jhana_ai/lib/python3.10/site-packages (1.23.22)\n",
      "Requirement already satisfied: lxml in /home/solaris/miniconda3/envs/jhana_ai/lib/python3.10/site-packages (from EbookLib) (5.1.0)\n",
      "Requirement already satisfied: six in /home/solaris/miniconda3/envs/jhana_ai/lib/python3.10/site-packages (from EbookLib) (1.16.0)\n",
      "Requirement already satisfied: PyMuPDFb==1.23.22 in /home/solaris/miniconda3/envs/jhana_ai/lib/python3.10/site-packages (from PyMuPDF) (1.23.22)\n"
     ]
    }
   ],
   "source": [
    "!pip install EbookLib PyMuPDF\n"
   ]
  },
  {
   "cell_type": "markdown",
   "metadata": {},
   "source": [
    "# Convert .m4a to .mp3"
   ]
  },
  {
   "cell_type": "code",
   "execution_count": 2,
   "metadata": {},
   "outputs": [
    {
     "name": "stderr",
     "output_type": "stream",
     "text": [
      "ffmpeg version 6.0-6ubuntu1 Copyright (c) 2000-2023 the FFmpeg developers\n",
      "  built with gcc 13 (Ubuntu 13.2.0-2ubuntu1)\n",
      "  configuration: --prefix=/usr --extra-version=6ubuntu1 --toolchain=hardened --libdir=/usr/lib/x86_64-linux-gnu --incdir=/usr/include/x86_64-linux-gnu --arch=amd64 --enable-gpl --disable-stripping --enable-gnutls --enable-ladspa --enable-libaom --enable-libass --enable-libbluray --enable-libbs2b --enable-libcaca --enable-libcdio --enable-libcodec2 --enable-libdav1d --enable-libflite --enable-libfontconfig --enable-libfreetype --enable-libfribidi --enable-libglslang --enable-libgme --enable-libgsm --enable-libjack --enable-libmp3lame --enable-libmysofa --enable-libopenjpeg --enable-libopenmpt --enable-libopus --enable-libpulse --enable-librabbitmq --enable-librist --enable-librubberband --enable-libshine --enable-libsnappy --enable-libsoxr --enable-libspeex --enable-libsrt --enable-libssh --enable-libsvtav1 --enable-libtheora --enable-libtwolame --enable-libvidstab --enable-libvorbis --enable-libvpx --enable-libwebp --enable-libx265 --enable-libxml2 --enable-libxvid --enable-libzimg --enable-libzmq --enable-libzvbi --enable-lv2 --enable-omx --enable-openal --enable-opencl --enable-opengl --enable-sdl2 --disable-sndio --enable-libjxl --enable-pocketsphinx --enable-librsvg --enable-libvpl --disable-libmfx --enable-libdc1394 --enable-libdrm --enable-libiec61883 --enable-chromaprint --enable-frei0r --enable-libx264 --enable-libplacebo --enable-librav1e --enable-shared\n",
      "  WARNING: library configuration mismatch\n",
      "  avcodec     configuration: --prefix=/usr --extra-version=6ubuntu1 --toolchain=hardened --libdir=/usr/lib/x86_64-linux-gnu --incdir=/usr/include/x86_64-linux-gnu --arch=amd64 --enable-gpl --disable-stripping --enable-gnutls --enable-ladspa --enable-libaom --enable-libass --enable-libbluray --enable-libbs2b --enable-libcaca --enable-libcdio --enable-libcodec2 --enable-libdav1d --enable-libflite --enable-libfontconfig --enable-libfreetype --enable-libfribidi --enable-libglslang --enable-libgme --enable-libgsm --enable-libjack --enable-libmp3lame --enable-libmysofa --enable-libopenjpeg --enable-libopenmpt --enable-libopus --enable-libpulse --enable-librabbitmq --enable-librist --enable-librubberband --enable-libshine --enable-libsnappy --enable-libsoxr --enable-libspeex --enable-libsrt --enable-libssh --enable-libsvtav1 --enable-libtheora --enable-libtwolame --enable-libvidstab --enable-libvorbis --enable-libvpx --enable-libwebp --enable-libx265 --enable-libxml2 --enable-libxvid --enable-libzimg --enable-libzmq --enable-libzvbi --enable-lv2 --enable-omx --enable-openal --enable-opencl --enable-opengl --enable-sdl2 --disable-sndio --enable-libjxl --enable-pocketsphinx --enable-librsvg --enable-libvpl --disable-libmfx --enable-libdc1394 --enable-libdrm --enable-libiec61883 --enable-chromaprint --enable-frei0r --enable-libx264 --enable-libplacebo --enable-librav1e --enable-shared --enable-version3 --disable-doc --disable-programs --disable-static --enable-libaribb24 --enable-libopencore_amrnb --enable-libopencore_amrwb --enable-libtesseract --enable-libvo_amrwbenc --enable-libsmbclient\n",
      "  libavutil      58.  2.100 / 58.  2.100\n",
      "  libavcodec     60.  3.100 / 60.  3.100\n",
      "  libavformat    60.  3.100 / 60.  3.100\n",
      "  libavdevice    60.  1.100 / 60.  1.100\n",
      "  libavfilter     9.  3.100 /  9.  3.100\n",
      "  libswscale      7.  1.100 /  7.  1.100\n",
      "  libswresample   4. 10.100 /  4. 10.100\n",
      "  libpostproc    57.  1.100 / 57.  1.100\n",
      "Input #0, mov,mp4,m4a,3gp,3g2,mj2, from '../data/input/audio/guided_meditations/audiodharma_dharmaseed/L.%20Metta%20guided.m4a':\n",
      "  Metadata:\n",
      "    major_brand     : 3gp4\n",
      "    minor_version   : 0\n",
      "    compatible_brands: isom3gp4\n",
      "    creation_time   : 2019-08-19T01:24:55.000000Z\n",
      "  Duration: 00:17:24.80, start: 0.000000, bitrate: 129 kb/s\n",
      "  Stream #0:0[0x1](eng): Audio: aac (LC) (mp4a / 0x6134706D), 44100 Hz, mono, fltp, 128 kb/s (default)\n",
      "    Metadata:\n",
      "      creation_time   : 2019-08-19T01:24:55.000000Z\n",
      "      handler_name    : SoundHandle\n",
      "      vendor_id       : [0][0][0][0]\n",
      "Stream mapping:\n",
      "  Stream #0:0 -> #0:0 (aac (native) -> mp3 (libmp3lame))\n",
      "Press [q] to stop, [?] for help\n",
      "Output #0, mp3, to '../data/input/audio/guided_meditations/audiodharma_dharmaseed/L.%20Metta%20guided.mp3':\n",
      "  Metadata:\n",
      "    major_brand     : 3gp4\n",
      "    minor_version   : 0\n",
      "    compatible_brands: isom3gp4\n",
      "    TSSE            : Lavf60.3.100\n",
      "  Stream #0:0(eng): Audio: mp3, 44100 Hz, mono, fltp (default)\n",
      "    Metadata:\n",
      "      creation_time   : 2019-08-19T01:24:55.000000Z\n",
      "      handler_name    : SoundHandle\n",
      "      vendor_id       : [0][0][0][0]\n",
      "      encoder         : Lavc60.3.100 libmp3lame\n",
      "size=    8163kB time=00:17:24.79 bitrate=  64.0kbits/s speed= 156x       \n",
      "video:0kB audio:8163kB subtitle:0kB other streams:0kB global headers:0kB muxing overhead: 0.003816%\n"
     ]
    },
    {
     "name": "stdout",
     "output_type": "stream",
     "text": [
      "Converted L.%20Metta%20guided.m4a to MP3 format.\n"
     ]
    },
    {
     "name": "stderr",
     "output_type": "stream",
     "text": [
      "ffmpeg version 6.0-6ubuntu1 Copyright (c) 2000-2023 the FFmpeg developers\n",
      "  built with gcc 13 (Ubuntu 13.2.0-2ubuntu1)\n",
      "  configuration: --prefix=/usr --extra-version=6ubuntu1 --toolchain=hardened --libdir=/usr/lib/x86_64-linux-gnu --incdir=/usr/include/x86_64-linux-gnu --arch=amd64 --enable-gpl --disable-stripping --enable-gnutls --enable-ladspa --enable-libaom --enable-libass --enable-libbluray --enable-libbs2b --enable-libcaca --enable-libcdio --enable-libcodec2 --enable-libdav1d --enable-libflite --enable-libfontconfig --enable-libfreetype --enable-libfribidi --enable-libglslang --enable-libgme --enable-libgsm --enable-libjack --enable-libmp3lame --enable-libmysofa --enable-libopenjpeg --enable-libopenmpt --enable-libopus --enable-libpulse --enable-librabbitmq --enable-librist --enable-librubberband --enable-libshine --enable-libsnappy --enable-libsoxr --enable-libspeex --enable-libsrt --enable-libssh --enable-libsvtav1 --enable-libtheora --enable-libtwolame --enable-libvidstab --enable-libvorbis --enable-libvpx --enable-libwebp --enable-libx265 --enable-libxml2 --enable-libxvid --enable-libzimg --enable-libzmq --enable-libzvbi --enable-lv2 --enable-omx --enable-openal --enable-opencl --enable-opengl --enable-sdl2 --disable-sndio --enable-libjxl --enable-pocketsphinx --enable-librsvg --enable-libvpl --disable-libmfx --enable-libdc1394 --enable-libdrm --enable-libiec61883 --enable-chromaprint --enable-frei0r --enable-libx264 --enable-libplacebo --enable-librav1e --enable-shared\n",
      "  WARNING: library configuration mismatch\n",
      "  avcodec     configuration: --prefix=/usr --extra-version=6ubuntu1 --toolchain=hardened --libdir=/usr/lib/x86_64-linux-gnu --incdir=/usr/include/x86_64-linux-gnu --arch=amd64 --enable-gpl --disable-stripping --enable-gnutls --enable-ladspa --enable-libaom --enable-libass --enable-libbluray --enable-libbs2b --enable-libcaca --enable-libcdio --enable-libcodec2 --enable-libdav1d --enable-libflite --enable-libfontconfig --enable-libfreetype --enable-libfribidi --enable-libglslang --enable-libgme --enable-libgsm --enable-libjack --enable-libmp3lame --enable-libmysofa --enable-libopenjpeg --enable-libopenmpt --enable-libopus --enable-libpulse --enable-librabbitmq --enable-librist --enable-librubberband --enable-libshine --enable-libsnappy --enable-libsoxr --enable-libspeex --enable-libsrt --enable-libssh --enable-libsvtav1 --enable-libtheora --enable-libtwolame --enable-libvidstab --enable-libvorbis --enable-libvpx --enable-libwebp --enable-libx265 --enable-libxml2 --enable-libxvid --enable-libzimg --enable-libzmq --enable-libzvbi --enable-lv2 --enable-omx --enable-openal --enable-opencl --enable-opengl --enable-sdl2 --disable-sndio --enable-libjxl --enable-pocketsphinx --enable-librsvg --enable-libvpl --disable-libmfx --enable-libdc1394 --enable-libdrm --enable-libiec61883 --enable-chromaprint --enable-frei0r --enable-libx264 --enable-libplacebo --enable-librav1e --enable-shared --enable-version3 --disable-doc --disable-programs --disable-static --enable-libaribb24 --enable-libopencore_amrnb --enable-libopencore_amrwb --enable-libtesseract --enable-libvo_amrwbenc --enable-libsmbclient\n",
      "  libavutil      58.  2.100 / 58.  2.100\n",
      "  libavcodec     60.  3.100 / 60.  3.100\n",
      "  libavformat    60.  3.100 / 60.  3.100\n",
      "  libavdevice    60.  1.100 / 60.  1.100\n",
      "  libavfilter     9.  3.100 /  9.  3.100\n",
      "  libswscale      7.  1.100 /  7.  1.100\n",
      "  libswresample   4. 10.100 /  4. 10.100\n",
      "  libpostproc    57.  1.100 / 57.  1.100\n",
      "Input #0, mov,mp4,m4a,3gp,3g2,mj2, from '../data/input/audio/guided_meditations/audiodharma_dharmaseed/Metta%20fountain%20of%20love%20droplets.m4a':\n",
      "  Metadata:\n",
      "    major_brand     : 3gp4\n",
      "    minor_version   : 0\n",
      "    compatible_brands: isom3gp4\n",
      "    creation_time   : 2019-08-20T01:27:19.000000Z\n",
      "  Duration: 00:17:16.61, start: 0.000000, bitrate: 129 kb/s\n",
      "  Stream #0:0[0x1](eng): Audio: aac (LC) (mp4a / 0x6134706D), 44100 Hz, mono, fltp, 128 kb/s (default)\n",
      "    Metadata:\n",
      "      creation_time   : 2019-08-20T01:27:19.000000Z\n",
      "      handler_name    : SoundHandle\n",
      "      vendor_id       : [0][0][0][0]\n",
      "Stream mapping:\n",
      "  Stream #0:0 -> #0:0 (aac (native) -> mp3 (libmp3lame))\n",
      "Press [q] to stop, [?] for help\n",
      "Output #0, mp3, to '../data/input/audio/guided_meditations/audiodharma_dharmaseed/Metta%20fountain%20of%20love%20droplets.mp3':\n",
      "  Metadata:\n",
      "    major_brand     : 3gp4\n",
      "    minor_version   : 0\n",
      "    compatible_brands: isom3gp4\n",
      "    TSSE            : Lavf60.3.100\n",
      "  Stream #0:0(eng): Audio: mp3, 44100 Hz, mono, fltp (default)\n",
      "    Metadata:\n",
      "      creation_time   : 2019-08-20T01:27:19.000000Z\n",
      "      handler_name    : SoundHandle\n",
      "      vendor_id       : [0][0][0][0]\n",
      "      encoder         : Lavc60.3.100 libmp3lame\n",
      "size=    8099kB time=00:17:16.59 bitrate=  64.0kbits/s speed= 162x       \n",
      "video:0kB audio:8099kB subtitle:0kB other streams:0kB global headers:0kB muxing overhead: 0.003846%\n",
      "ffmpeg version 6.0-6ubuntu1 Copyright (c) 2000-2023 the FFmpeg developers\n",
      "  built with gcc 13 (Ubuntu 13.2.0-2ubuntu1)\n",
      "  configuration: --prefix=/usr --extra-version=6ubuntu1 --toolchain=hardened --libdir=/usr/lib/x86_64-linux-gnu --incdir=/usr/include/x86_64-linux-gnu --arch=amd64 --enable-gpl --disable-stripping --enable-gnutls --enable-ladspa --enable-libaom --enable-libass --enable-libbluray --enable-libbs2b --enable-libcaca --enable-libcdio --enable-libcodec2 --enable-libdav1d --enable-libflite --enable-libfontconfig --enable-libfreetype --enable-libfribidi --enable-libglslang --enable-libgme --enable-libgsm --enable-libjack --enable-libmp3lame --enable-libmysofa --enable-libopenjpeg --enable-libopenmpt --enable-libopus --enable-libpulse --enable-librabbitmq --enable-librist --enable-librubberband --enable-libshine --enable-libsnappy --enable-libsoxr --enable-libspeex --enable-libsrt --enable-libssh --enable-libsvtav1 --enable-libtheora --enable-libtwolame --enable-libvidstab --enable-libvorbis --enable-libvpx --enable-libwebp --enable-libx265 --enable-libxml2 --enable-libxvid --enable-libzimg --enable-libzmq --enable-libzvbi --enable-lv2 --enable-omx --enable-openal --enable-opencl --enable-opengl --enable-sdl2 --disable-sndio --enable-libjxl --enable-pocketsphinx --enable-librsvg --enable-libvpl --disable-libmfx --enable-libdc1394 --enable-libdrm --enable-libiec61883 --enable-chromaprint --enable-frei0r --enable-libx264 --enable-libplacebo --enable-librav1e --enable-shared\n",
      "  WARNING: library configuration mismatch\n",
      "  avcodec     configuration: --prefix=/usr --extra-version=6ubuntu1 --toolchain=hardened --libdir=/usr/lib/x86_64-linux-gnu --incdir=/usr/include/x86_64-linux-gnu --arch=amd64 --enable-gpl --disable-stripping --enable-gnutls --enable-ladspa --enable-libaom --enable-libass --enable-libbluray --enable-libbs2b --enable-libcaca --enable-libcdio --enable-libcodec2 --enable-libdav1d --enable-libflite --enable-libfontconfig --enable-libfreetype --enable-libfribidi --enable-libglslang --enable-libgme --enable-libgsm --enable-libjack --enable-libmp3lame --enable-libmysofa --enable-libopenjpeg --enable-libopenmpt --enable-libopus --enable-libpulse --enable-librabbitmq --enable-librist --enable-librubberband --enable-libshine --enable-libsnappy --enable-libsoxr --enable-libspeex --enable-libsrt --enable-libssh --enable-libsvtav1 --enable-libtheora --enable-libtwolame --enable-libvidstab --enable-libvorbis --enable-libvpx --enable-libwebp --enable-libx265 --enable-libxml2 --enable-libxvid --enable-libzimg --enable-libzmq --enable-libzvbi --enable-lv2 --enable-omx --enable-openal --enable-opencl --enable-opengl --enable-sdl2 --disable-sndio --enable-libjxl --enable-pocketsphinx --enable-librsvg --enable-libvpl --disable-libmfx --enable-libdc1394 --enable-libdrm --enable-libiec61883 --enable-chromaprint --enable-frei0r --enable-libx264 --enable-libplacebo --enable-librav1e --enable-shared --enable-version3 --disable-doc --disable-programs --disable-static --enable-libaribb24 --enable-libopencore_amrnb --enable-libopencore_amrwb --enable-libtesseract --enable-libvo_amrwbenc --enable-libsmbclient\n",
      "  libavutil      58.  2.100 / 58.  2.100\n",
      "  libavcodec     60.  3.100 / 60.  3.100\n",
      "  libavformat    60.  3.100 / 60.  3.100\n",
      "  libavdevice    60.  1.100 / 60.  1.100\n",
      "  libavfilter     9.  3.100 /  9.  3.100\n",
      "  libswscale      7.  1.100 /  7.  1.100\n",
      "  libswresample   4. 10.100 /  4. 10.100\n",
      "  libpostproc    57.  1.100 / 57.  1.100\n",
      "Input #0, mov,mp4,m4a,3gp,3g2,mj2, from '../data/input/audio/guided_meditations/audiodharma_dharmaseed/Mind%20states%20and%205%20aggregates.m4a':\n",
      "  Metadata:\n",
      "    major_brand     : 3gp4\n",
      "    minor_version   : 0\n",
      "    compatible_brands: isom3gp4\n",
      "    creation_time   : 2019-08-23T15:55:50.000000Z\n",
      "  Duration: 01:18:27.32, start: 0.000000, bitrate: 129 kb/s\n",
      "  Stream #0:0[0x1](eng): Audio: aac (LC) (mp4a / 0x6134706D), 44100 Hz, mono, fltp, 128 kb/s (default)\n",
      "    Metadata:\n",
      "      creation_time   : 2019-08-23T15:55:50.000000Z\n",
      "      handler_name    : SoundHandle\n",
      "      vendor_id       : [0][0][0][0]\n",
      "Stream mapping:\n",
      "  Stream #0:0 -> #0:0 (aac (native) -> mp3 (libmp3lame))\n",
      "Press [q] to stop, [?] for help\n",
      "Output #0, mp3, to '../data/input/audio/guided_meditations/audiodharma_dharmaseed/Mind%20states%20and%205%20aggregates.mp3':\n",
      "  Metadata:\n",
      "    major_brand     : 3gp4\n",
      "    minor_version   : 0\n",
      "    compatible_brands: isom3gp4\n",
      "    TSSE            : Lavf60.3.100\n",
      "  Stream #0:0(eng): Audio: mp3, 44100 Hz, mono, fltp (default)\n",
      "    Metadata:\n",
      "      creation_time   : 2019-08-23T15:55:50.000000Z\n",
      "      handler_name    : SoundHandle\n",
      "      vendor_id       : [0][0][0][0]\n",
      "      encoder         : Lavc60.3.100 libmp3lame\n",
      "size=       0kB time=-577014:32:22.77 bitrate=  -0.0kbits/s speed=N/A    \r"
     ]
    },
    {
     "name": "stdout",
     "output_type": "stream",
     "text": [
      "Converted Metta%20fountain%20of%20love%20droplets.m4a to MP3 format.\n"
     ]
    },
    {
     "name": "stderr",
     "output_type": "stream",
     "text": [
      "size=   36777kB time=01:18:27.31 bitrate=  64.0kbits/s speed= 128x    \n",
      "video:0kB audio:36777kB subtitle:0kB other streams:0kB global headers:0kB muxing overhead: 0.000847%\n",
      "ffmpeg version 6.0-6ubuntu1 Copyright (c) 2000-2023 the FFmpeg developers\n",
      "  built with gcc 13 (Ubuntu 13.2.0-2ubuntu1)\n",
      "  configuration: --prefix=/usr --extra-version=6ubuntu1 --toolchain=hardened --libdir=/usr/lib/x86_64-linux-gnu --incdir=/usr/include/x86_64-linux-gnu --arch=amd64 --enable-gpl --disable-stripping --enable-gnutls --enable-ladspa --enable-libaom --enable-libass --enable-libbluray --enable-libbs2b --enable-libcaca --enable-libcdio --enable-libcodec2 --enable-libdav1d --enable-libflite --enable-libfontconfig --enable-libfreetype --enable-libfribidi --enable-libglslang --enable-libgme --enable-libgsm --enable-libjack --enable-libmp3lame --enable-libmysofa --enable-libopenjpeg --enable-libopenmpt --enable-libopus --enable-libpulse --enable-librabbitmq --enable-librist --enable-librubberband --enable-libshine --enable-libsnappy --enable-libsoxr --enable-libspeex --enable-libsrt --enable-libssh --enable-libsvtav1 --enable-libtheora --enable-libtwolame --enable-libvidstab --enable-libvorbis --enable-libvpx --enable-libwebp --enable-libx265 --enable-libxml2 --enable-libxvid --enable-libzimg --enable-libzmq --enable-libzvbi --enable-lv2 --enable-omx --enable-openal --enable-opencl --enable-opengl --enable-sdl2 --disable-sndio --enable-libjxl --enable-pocketsphinx --enable-librsvg --enable-libvpl --disable-libmfx --enable-libdc1394 --enable-libdrm --enable-libiec61883 --enable-chromaprint --enable-frei0r --enable-libx264 --enable-libplacebo --enable-librav1e --enable-shared\n",
      "  WARNING: library configuration mismatch\n",
      "  avcodec     configuration: --prefix=/usr --extra-version=6ubuntu1 --toolchain=hardened --libdir=/usr/lib/x86_64-linux-gnu --incdir=/usr/include/x86_64-linux-gnu --arch=amd64 --enable-gpl --disable-stripping --enable-gnutls --enable-ladspa --enable-libaom --enable-libass --enable-libbluray --enable-libbs2b --enable-libcaca --enable-libcdio --enable-libcodec2 --enable-libdav1d --enable-libflite --enable-libfontconfig --enable-libfreetype --enable-libfribidi --enable-libglslang --enable-libgme --enable-libgsm --enable-libjack --enable-libmp3lame --enable-libmysofa --enable-libopenjpeg --enable-libopenmpt --enable-libopus --enable-libpulse --enable-librabbitmq --enable-librist --enable-librubberband --enable-libshine --enable-libsnappy --enable-libsoxr --enable-libspeex --enable-libsrt --enable-libssh --enable-libsvtav1 --enable-libtheora --enable-libtwolame --enable-libvidstab --enable-libvorbis --enable-libvpx --enable-libwebp --enable-libx265 --enable-libxml2 --enable-libxvid --enable-libzimg --enable-libzmq --enable-libzvbi --enable-lv2 --enable-omx --enable-openal --enable-opencl --enable-opengl --enable-sdl2 --disable-sndio --enable-libjxl --enable-pocketsphinx --enable-librsvg --enable-libvpl --disable-libmfx --enable-libdc1394 --enable-libdrm --enable-libiec61883 --enable-chromaprint --enable-frei0r --enable-libx264 --enable-libplacebo --enable-librav1e --enable-shared --enable-version3 --disable-doc --disable-programs --disable-static --enable-libaribb24 --enable-libopencore_amrnb --enable-libopencore_amrwb --enable-libtesseract --enable-libvo_amrwbenc --enable-libsmbclient\n",
      "  libavutil      58.  2.100 / 58.  2.100\n",
      "  libavcodec     60.  3.100 / 60.  3.100\n",
      "  libavformat    60.  3.100 / 60.  3.100\n",
      "  libavdevice    60.  1.100 / 60.  1.100\n",
      "  libavfilter     9.  3.100 /  9.  3.100\n",
      "  libswscale      7.  1.100 /  7.  1.100\n",
      "  libswresample   4. 10.100 /  4. 10.100\n",
      "  libpostproc    57.  1.100 / 57.  1.100\n",
      "Input #0, mov,mp4,m4a,3gp,3g2,mj2, from '../data/input/audio/guided_meditations/audiodharma_dharmaseed/Elements%20&%20q%20re%20body%20scan.m4a':\n",
      "  Metadata:\n",
      "    major_brand     : 3gp4\n",
      "    minor_version   : 0\n",
      "    compatible_brands: isom3gp4\n",
      "    creation_time   : 2019-08-21T15:33:56.000000Z\n",
      "  Duration: 00:56:23.93, start: 0.000000, bitrate: 129 kb/s\n",
      "  Stream #0:0[0x1](eng): Audio: aac (LC) (mp4a / 0x6134706D), 44100 Hz, mono, fltp, 128 kb/s (default)\n",
      "    Metadata:\n",
      "      creation_time   : 2019-08-21T15:33:56.000000Z\n",
      "      handler_name    : SoundHandle\n",
      "      vendor_id       : [0][0][0][0]\n",
      "Stream mapping:\n",
      "  Stream #0:0 -> #0:0 (aac (native) -> mp3 (libmp3lame))\n",
      "Press [q] to stop, [?] for help\n",
      "Output #0, mp3, to '../data/input/audio/guided_meditations/audiodharma_dharmaseed/Elements%20&%20q%20re%20body%20scan.mp3':\n",
      "  Metadata:\n",
      "    major_brand     : 3gp4\n",
      "    minor_version   : 0\n",
      "    compatible_brands: isom3gp4\n",
      "    TSSE            : Lavf60.3.100\n",
      "  Stream #0:0(eng): Audio: mp3, 44100 Hz, mono, fltp (default)\n",
      "    Metadata:\n",
      "      creation_time   : 2019-08-21T15:33:56.000000Z\n",
      "      handler_name    : SoundHandle\n",
      "      vendor_id       : [0][0][0][0]\n",
      "      encoder         : Lavc60.3.100 libmp3lame\n",
      "size=       0kB time=-577014:32:22.77 bitrate=  -0.0kbits/s speed=N/A    \r"
     ]
    },
    {
     "name": "stdout",
     "output_type": "stream",
     "text": [
      "Converted Mind%20states%20and%205%20aggregates.m4a to MP3 format.\n"
     ]
    },
    {
     "name": "stderr",
     "output_type": "stream",
     "text": [
      "size=   26438kB time=00:56:23.90 bitrate=  64.0kbits/s speed= 129x    \n",
      "video:0kB audio:26438kB subtitle:0kB other streams:0kB global headers:0kB muxing overhead: 0.001178%\n",
      "ffmpeg version 6.0-6ubuntu1 Copyright (c) 2000-2023 the FFmpeg developers\n",
      "  built with gcc 13 (Ubuntu 13.2.0-2ubuntu1)\n",
      "  configuration: --prefix=/usr --extra-version=6ubuntu1 --toolchain=hardened --libdir=/usr/lib/x86_64-linux-gnu --incdir=/usr/include/x86_64-linux-gnu --arch=amd64 --enable-gpl --disable-stripping --enable-gnutls --enable-ladspa --enable-libaom --enable-libass --enable-libbluray --enable-libbs2b --enable-libcaca --enable-libcdio --enable-libcodec2 --enable-libdav1d --enable-libflite --enable-libfontconfig --enable-libfreetype --enable-libfribidi --enable-libglslang --enable-libgme --enable-libgsm --enable-libjack --enable-libmp3lame --enable-libmysofa --enable-libopenjpeg --enable-libopenmpt --enable-libopus --enable-libpulse --enable-librabbitmq --enable-librist --enable-librubberband --enable-libshine --enable-libsnappy --enable-libsoxr --enable-libspeex --enable-libsrt --enable-libssh --enable-libsvtav1 --enable-libtheora --enable-libtwolame --enable-libvidstab --enable-libvorbis --enable-libvpx --enable-libwebp --enable-libx265 --enable-libxml2 --enable-libxvid --enable-libzimg --enable-libzmq --enable-libzvbi --enable-lv2 --enable-omx --enable-openal --enable-opencl --enable-opengl --enable-sdl2 --disable-sndio --enable-libjxl --enable-pocketsphinx --enable-librsvg --enable-libvpl --disable-libmfx --enable-libdc1394 --enable-libdrm --enable-libiec61883 --enable-chromaprint --enable-frei0r --enable-libx264 --enable-libplacebo --enable-librav1e --enable-shared\n",
      "  WARNING: library configuration mismatch\n",
      "  avcodec     configuration: --prefix=/usr --extra-version=6ubuntu1 --toolchain=hardened --libdir=/usr/lib/x86_64-linux-gnu --incdir=/usr/include/x86_64-linux-gnu --arch=amd64 --enable-gpl --disable-stripping --enable-gnutls --enable-ladspa --enable-libaom --enable-libass --enable-libbluray --enable-libbs2b --enable-libcaca --enable-libcdio --enable-libcodec2 --enable-libdav1d --enable-libflite --enable-libfontconfig --enable-libfreetype --enable-libfribidi --enable-libglslang --enable-libgme --enable-libgsm --enable-libjack --enable-libmp3lame --enable-libmysofa --enable-libopenjpeg --enable-libopenmpt --enable-libopus --enable-libpulse --enable-librabbitmq --enable-librist --enable-librubberband --enable-libshine --enable-libsnappy --enable-libsoxr --enable-libspeex --enable-libsrt --enable-libssh --enable-libsvtav1 --enable-libtheora --enable-libtwolame --enable-libvidstab --enable-libvorbis --enable-libvpx --enable-libwebp --enable-libx265 --enable-libxml2 --enable-libxvid --enable-libzimg --enable-libzmq --enable-libzvbi --enable-lv2 --enable-omx --enable-openal --enable-opencl --enable-opengl --enable-sdl2 --disable-sndio --enable-libjxl --enable-pocketsphinx --enable-librsvg --enable-libvpl --disable-libmfx --enable-libdc1394 --enable-libdrm --enable-libiec61883 --enable-chromaprint --enable-frei0r --enable-libx264 --enable-libplacebo --enable-librav1e --enable-shared --enable-version3 --disable-doc --disable-programs --disable-static --enable-libaribb24 --enable-libopencore_amrnb --enable-libopencore_amrwb --enable-libtesseract --enable-libvo_amrwbenc --enable-libsmbclient\n",
      "  libavutil      58.  2.100 / 58.  2.100\n",
      "  libavcodec     60.  3.100 / 60.  3.100\n",
      "  libavformat    60.  3.100 / 60.  3.100\n",
      "  libavdevice    60.  1.100 / 60.  1.100\n",
      "  libavfilter     9.  3.100 /  9.  3.100\n",
      "  libswscale      7.  1.100 /  7.  1.100\n",
      "  libswresample   4. 10.100 /  4. 10.100\n",
      "  libpostproc    57.  1.100 / 57.  1.100\n",
      "Input #0, mov,mp4,m4a,3gp,3g2,mj2, from '../data/input/audio/guided_meditations/audiodharma_dharmaseed/Metta%20flowers.m4a':\n",
      "  Metadata:\n",
      "    major_brand     : 3gp4\n",
      "    minor_version   : 0\n",
      "    compatible_brands: isom3gp4\n",
      "    creation_time   : 2019-08-18T01:16:57.000000Z\n",
      "  Duration: 00:15:07.58, start: 0.000000, bitrate: 129 kb/s\n",
      "  Stream #0:0[0x1](eng): Audio: aac (LC) (mp4a / 0x6134706D), 44100 Hz, mono, fltp, 128 kb/s (default)\n",
      "    Metadata:\n",
      "      creation_time   : 2019-08-18T01:16:57.000000Z\n",
      "      handler_name    : SoundHandle\n",
      "      vendor_id       : [0][0][0][0]\n",
      "Stream mapping:\n",
      "  Stream #0:0 -> #0:0 (aac (native) -> mp3 (libmp3lame))\n",
      "Press [q] to stop, [?] for help\n",
      "Output #0, mp3, to '../data/input/audio/guided_meditations/audiodharma_dharmaseed/Metta%20flowers.mp3':\n",
      "  Metadata:\n",
      "    major_brand     : 3gp4\n",
      "    minor_version   : 0\n",
      "    compatible_brands: isom3gp4\n",
      "    TSSE            : Lavf60.3.100\n",
      "  Stream #0:0(eng): Audio: mp3, 44100 Hz, mono, fltp (default)\n",
      "    Metadata:\n",
      "      creation_time   : 2019-08-18T01:16:57.000000Z\n",
      "      handler_name    : SoundHandle\n",
      "      vendor_id       : [0][0][0][0]\n",
      "      encoder         : Lavc60.3.100 libmp3lame\n",
      "size=       0kB time=-577014:32:22.77 bitrate=  -0.0kbits/s speed=N/A    \r"
     ]
    },
    {
     "name": "stdout",
     "output_type": "stream",
     "text": [
      "Converted Elements%20&%20q%20re%20body%20scan.m4a to MP3 format.\n",
      "Skipped L.%205%20hindrances%202.m4a, MP3 file already exists.\n"
     ]
    },
    {
     "name": "stderr",
     "output_type": "stream",
     "text": [
      "size=    7091kB time=00:15:07.55 bitrate=  64.0kbits/s speed= 158x    \n",
      "video:0kB audio:7091kB subtitle:0kB other streams:0kB global headers:0kB muxing overhead: 0.004393%\n",
      "ffmpeg version 6.0-6ubuntu1 Copyright (c) 2000-2023 the FFmpeg developers\n",
      "  built with gcc 13 (Ubuntu 13.2.0-2ubuntu1)\n",
      "  configuration: --prefix=/usr --extra-version=6ubuntu1 --toolchain=hardened --libdir=/usr/lib/x86_64-linux-gnu --incdir=/usr/include/x86_64-linux-gnu --arch=amd64 --enable-gpl --disable-stripping --enable-gnutls --enable-ladspa --enable-libaom --enable-libass --enable-libbluray --enable-libbs2b --enable-libcaca --enable-libcdio --enable-libcodec2 --enable-libdav1d --enable-libflite --enable-libfontconfig --enable-libfreetype --enable-libfribidi --enable-libglslang --enable-libgme --enable-libgsm --enable-libjack --enable-libmp3lame --enable-libmysofa --enable-libopenjpeg --enable-libopenmpt --enable-libopus --enable-libpulse --enable-librabbitmq --enable-librist --enable-librubberband --enable-libshine --enable-libsnappy --enable-libsoxr --enable-libspeex --enable-libsrt --enable-libssh --enable-libsvtav1 --enable-libtheora --enable-libtwolame --enable-libvidstab --enable-libvorbis --enable-libvpx --enable-libwebp --enable-libx265 --enable-libxml2 --enable-libxvid --enable-libzimg --enable-libzmq --enable-libzvbi --enable-lv2 --enable-omx --enable-openal --enable-opencl --enable-opengl --enable-sdl2 --disable-sndio --enable-libjxl --enable-pocketsphinx --enable-librsvg --enable-libvpl --disable-libmfx --enable-libdc1394 --enable-libdrm --enable-libiec61883 --enable-chromaprint --enable-frei0r --enable-libx264 --enable-libplacebo --enable-librav1e --enable-shared\n",
      "  WARNING: library configuration mismatch\n",
      "  avcodec     configuration: --prefix=/usr --extra-version=6ubuntu1 --toolchain=hardened --libdir=/usr/lib/x86_64-linux-gnu --incdir=/usr/include/x86_64-linux-gnu --arch=amd64 --enable-gpl --disable-stripping --enable-gnutls --enable-ladspa --enable-libaom --enable-libass --enable-libbluray --enable-libbs2b --enable-libcaca --enable-libcdio --enable-libcodec2 --enable-libdav1d --enable-libflite --enable-libfontconfig --enable-libfreetype --enable-libfribidi --enable-libglslang --enable-libgme --enable-libgsm --enable-libjack --enable-libmp3lame --enable-libmysofa --enable-libopenjpeg --enable-libopenmpt --enable-libopus --enable-libpulse --enable-librabbitmq --enable-librist --enable-librubberband --enable-libshine --enable-libsnappy --enable-libsoxr --enable-libspeex --enable-libsrt --enable-libssh --enable-libsvtav1 --enable-libtheora --enable-libtwolame --enable-libvidstab --enable-libvorbis --enable-libvpx --enable-libwebp --enable-libx265 --enable-libxml2 --enable-libxvid --enable-libzimg --enable-libzmq --enable-libzvbi --enable-lv2 --enable-omx --enable-openal --enable-opencl --enable-opengl --enable-sdl2 --disable-sndio --enable-libjxl --enable-pocketsphinx --enable-librsvg --enable-libvpl --disable-libmfx --enable-libdc1394 --enable-libdrm --enable-libiec61883 --enable-chromaprint --enable-frei0r --enable-libx264 --enable-libplacebo --enable-librav1e --enable-shared --enable-version3 --disable-doc --disable-programs --disable-static --enable-libaribb24 --enable-libopencore_amrnb --enable-libopencore_amrwb --enable-libtesseract --enable-libvo_amrwbenc --enable-libsmbclient\n",
      "  libavutil      58.  2.100 / 58.  2.100\n",
      "  libavcodec     60.  3.100 / 60.  3.100\n",
      "  libavformat    60.  3.100 / 60.  3.100\n",
      "  libavdevice    60.  1.100 / 60.  1.100\n",
      "  libavfilter     9.  3.100 /  9.  3.100\n",
      "  libswscale      7.  1.100 /  7.  1.100\n",
      "  libswresample   4. 10.100 /  4. 10.100\n",
      "  libpostproc    57.  1.100 / 57.  1.100\n",
      "Input #0, mov,mp4,m4a,3gp,3g2,mj2, from '../data/input/audio/guided_meditations/audiodharma_dharmaseed/Love%20guided.m4a':\n",
      "  Metadata:\n",
      "    major_brand     : 3gp4\n",
      "    minor_version   : 0\n",
      "    compatible_brands: isom3gp4\n",
      "    creation_time   : 2019-08-29T01:23:34.000000Z\n",
      "  Duration: 00:18:51.25, start: 0.000000, bitrate: 129 kb/s\n",
      "  Stream #0:0[0x1](eng): Audio: aac (LC) (mp4a / 0x6134706D), 44100 Hz, mono, fltp, 128 kb/s (default)\n",
      "    Metadata:\n",
      "      creation_time   : 2019-08-29T01:23:34.000000Z\n",
      "      handler_name    : SoundHandle\n",
      "      vendor_id       : [0][0][0][0]\n",
      "Stream mapping:\n",
      "  Stream #0:0 -> #0:0 (aac (native) -> mp3 (libmp3lame))\n",
      "Press [q] to stop, [?] for help\n",
      "Output #0, mp3, to '../data/input/audio/guided_meditations/audiodharma_dharmaseed/Love%20guided.mp3':\n",
      "  Metadata:\n",
      "    major_brand     : 3gp4\n",
      "    minor_version   : 0\n",
      "    compatible_brands: isom3gp4\n",
      "    TSSE            : Lavf60.3.100\n",
      "  Stream #0:0(eng): Audio: mp3, 44100 Hz, mono, fltp (default)\n",
      "    Metadata:\n",
      "      creation_time   : 2019-08-29T01:23:34.000000Z\n",
      "      handler_name    : SoundHandle\n",
      "      vendor_id       : [0][0][0][0]\n",
      "      encoder         : Lavc60.3.100 libmp3lame\n",
      "size=       0kB time=-577014:32:22.77 bitrate=  -0.0kbits/s speed=N/A    \r"
     ]
    },
    {
     "name": "stdout",
     "output_type": "stream",
     "text": [
      "Converted Metta%20flowers.m4a to MP3 format.\n",
      "Skipped Leigh%20day%201%20overview%20of%20teachings.m4a, MP3 file already exists.\n"
     ]
    },
    {
     "name": "stderr",
     "output_type": "stream",
     "text": [
      "size=    8839kB time=00:18:51.23 bitrate=  64.0kbits/s speed= 162x    \n",
      "video:0kB audio:8838kB subtitle:0kB other streams:0kB global headers:0kB muxing overhead: 0.003525%\n",
      "ffmpeg version 6.0-6ubuntu1 Copyright (c) 2000-2023 the FFmpeg developers\n",
      "  built with gcc 13 (Ubuntu 13.2.0-2ubuntu1)\n",
      "  configuration: --prefix=/usr --extra-version=6ubuntu1 --toolchain=hardened --libdir=/usr/lib/x86_64-linux-gnu --incdir=/usr/include/x86_64-linux-gnu --arch=amd64 --enable-gpl --disable-stripping --enable-gnutls --enable-ladspa --enable-libaom --enable-libass --enable-libbluray --enable-libbs2b --enable-libcaca --enable-libcdio --enable-libcodec2 --enable-libdav1d --enable-libflite --enable-libfontconfig --enable-libfreetype --enable-libfribidi --enable-libglslang --enable-libgme --enable-libgsm --enable-libjack --enable-libmp3lame --enable-libmysofa --enable-libopenjpeg --enable-libopenmpt --enable-libopus --enable-libpulse --enable-librabbitmq --enable-librist --enable-librubberband --enable-libshine --enable-libsnappy --enable-libsoxr --enable-libspeex --enable-libsrt --enable-libssh --enable-libsvtav1 --enable-libtheora --enable-libtwolame --enable-libvidstab --enable-libvorbis --enable-libvpx --enable-libwebp --enable-libx265 --enable-libxml2 --enable-libxvid --enable-libzimg --enable-libzmq --enable-libzvbi --enable-lv2 --enable-omx --enable-openal --enable-opencl --enable-opengl --enable-sdl2 --disable-sndio --enable-libjxl --enable-pocketsphinx --enable-librsvg --enable-libvpl --disable-libmfx --enable-libdc1394 --enable-libdrm --enable-libiec61883 --enable-chromaprint --enable-frei0r --enable-libx264 --enable-libplacebo --enable-librav1e --enable-shared\n",
      "  WARNING: library configuration mismatch\n",
      "  avcodec     configuration: --prefix=/usr --extra-version=6ubuntu1 --toolchain=hardened --libdir=/usr/lib/x86_64-linux-gnu --incdir=/usr/include/x86_64-linux-gnu --arch=amd64 --enable-gpl --disable-stripping --enable-gnutls --enable-ladspa --enable-libaom --enable-libass --enable-libbluray --enable-libbs2b --enable-libcaca --enable-libcdio --enable-libcodec2 --enable-libdav1d --enable-libflite --enable-libfontconfig --enable-libfreetype --enable-libfribidi --enable-libglslang --enable-libgme --enable-libgsm --enable-libjack --enable-libmp3lame --enable-libmysofa --enable-libopenjpeg --enable-libopenmpt --enable-libopus --enable-libpulse --enable-librabbitmq --enable-librist --enable-librubberband --enable-libshine --enable-libsnappy --enable-libsoxr --enable-libspeex --enable-libsrt --enable-libssh --enable-libsvtav1 --enable-libtheora --enable-libtwolame --enable-libvidstab --enable-libvorbis --enable-libvpx --enable-libwebp --enable-libx265 --enable-libxml2 --enable-libxvid --enable-libzimg --enable-libzmq --enable-libzvbi --enable-lv2 --enable-omx --enable-openal --enable-opencl --enable-opengl --enable-sdl2 --disable-sndio --enable-libjxl --enable-pocketsphinx --enable-librsvg --enable-libvpl --disable-libmfx --enable-libdc1394 --enable-libdrm --enable-libiec61883 --enable-chromaprint --enable-frei0r --enable-libx264 --enable-libplacebo --enable-librav1e --enable-shared --enable-version3 --disable-doc --disable-programs --disable-static --enable-libaribb24 --enable-libopencore_amrnb --enable-libopencore_amrwb --enable-libtesseract --enable-libvo_amrwbenc --enable-libsmbclient\n",
      "  libavutil      58.  2.100 / 58.  2.100\n",
      "  libavcodec     60.  3.100 / 60.  3.100\n",
      "  libavformat    60.  3.100 / 60.  3.100\n",
      "  libavdevice    60.  1.100 / 60.  1.100\n",
      "  libavfilter     9.  3.100 /  9.  3.100\n",
      "  libswscale      7.  1.100 /  7.  1.100\n",
      "  libswresample   4. 10.100 /  4. 10.100\n",
      "  libpostproc    57.  1.100 / 57.  1.100\n",
      "Input #0, mov,mp4,m4a,3gp,3g2,mj2, from '../data/input/audio/guided_meditations/audiodharma_dharmaseed/Brahma%20Viharas.m4a':\n",
      "  Metadata:\n",
      "    major_brand     : 3gp4\n",
      "    minor_version   : 0\n",
      "    compatible_brands: isom3gp4\n",
      "    creation_time   : 2019-08-29T01:00:56.000000Z\n",
      "  Duration: 00:57:08.65, start: 0.000000, bitrate: 129 kb/s\n",
      "  Stream #0:0[0x1](eng): Audio: aac (LC) (mp4a / 0x6134706D), 44100 Hz, mono, fltp, 128 kb/s (default)\n",
      "    Metadata:\n",
      "      creation_time   : 2019-08-29T01:00:56.000000Z\n",
      "      handler_name    : SoundHandle\n",
      "      vendor_id       : [0][0][0][0]\n",
      "Stream mapping:\n",
      "  Stream #0:0 -> #0:0 (aac (native) -> mp3 (libmp3lame))\n",
      "Press [q] to stop, [?] for help\n",
      "Output #0, mp3, to '../data/input/audio/guided_meditations/audiodharma_dharmaseed/Brahma%20Viharas.mp3':\n",
      "  Metadata:\n",
      "    major_brand     : 3gp4\n",
      "    minor_version   : 0\n",
      "    compatible_brands: isom3gp4\n",
      "    TSSE            : Lavf60.3.100\n",
      "  Stream #0:0(eng): Audio: mp3, 44100 Hz, mono, fltp (default)\n",
      "    Metadata:\n",
      "      creation_time   : 2019-08-29T01:00:56.000000Z\n",
      "      handler_name    : SoundHandle\n",
      "      vendor_id       : [0][0][0][0]\n",
      "      encoder         : Lavc60.3.100 libmp3lame\n",
      "size=       0kB time=-577014:32:22.77 bitrate=  -0.0kbits/s speed=N/A    \r"
     ]
    },
    {
     "name": "stdout",
     "output_type": "stream",
     "text": [
      "Converted Love%20guided.m4a to MP3 format.\n"
     ]
    },
    {
     "name": "stderr",
     "output_type": "stream",
     "text": [
      "size=   26787kB time=00:57:08.62 bitrate=  64.0kbits/s speed= 127x    \n",
      "video:0kB audio:26787kB subtitle:0kB other streams:0kB global headers:0kB muxing overhead: 0.001163%\n",
      "ffmpeg version 6.0-6ubuntu1 Copyright (c) 2000-2023 the FFmpeg developers\n",
      "  built with gcc 13 (Ubuntu 13.2.0-2ubuntu1)\n",
      "  configuration: --prefix=/usr --extra-version=6ubuntu1 --toolchain=hardened --libdir=/usr/lib/x86_64-linux-gnu --incdir=/usr/include/x86_64-linux-gnu --arch=amd64 --enable-gpl --disable-stripping --enable-gnutls --enable-ladspa --enable-libaom --enable-libass --enable-libbluray --enable-libbs2b --enable-libcaca --enable-libcdio --enable-libcodec2 --enable-libdav1d --enable-libflite --enable-libfontconfig --enable-libfreetype --enable-libfribidi --enable-libglslang --enable-libgme --enable-libgsm --enable-libjack --enable-libmp3lame --enable-libmysofa --enable-libopenjpeg --enable-libopenmpt --enable-libopus --enable-libpulse --enable-librabbitmq --enable-librist --enable-librubberband --enable-libshine --enable-libsnappy --enable-libsoxr --enable-libspeex --enable-libsrt --enable-libssh --enable-libsvtav1 --enable-libtheora --enable-libtwolame --enable-libvidstab --enable-libvorbis --enable-libvpx --enable-libwebp --enable-libx265 --enable-libxml2 --enable-libxvid --enable-libzimg --enable-libzmq --enable-libzvbi --enable-lv2 --enable-omx --enable-openal --enable-opencl --enable-opengl --enable-sdl2 --disable-sndio --enable-libjxl --enable-pocketsphinx --enable-librsvg --enable-libvpl --disable-libmfx --enable-libdc1394 --enable-libdrm --enable-libiec61883 --enable-chromaprint --enable-frei0r --enable-libx264 --enable-libplacebo --enable-librav1e --enable-shared\n",
      "  WARNING: library configuration mismatch\n",
      "  avcodec     configuration: --prefix=/usr --extra-version=6ubuntu1 --toolchain=hardened --libdir=/usr/lib/x86_64-linux-gnu --incdir=/usr/include/x86_64-linux-gnu --arch=amd64 --enable-gpl --disable-stripping --enable-gnutls --enable-ladspa --enable-libaom --enable-libass --enable-libbluray --enable-libbs2b --enable-libcaca --enable-libcdio --enable-libcodec2 --enable-libdav1d --enable-libflite --enable-libfontconfig --enable-libfreetype --enable-libfribidi --enable-libglslang --enable-libgme --enable-libgsm --enable-libjack --enable-libmp3lame --enable-libmysofa --enable-libopenjpeg --enable-libopenmpt --enable-libopus --enable-libpulse --enable-librabbitmq --enable-librist --enable-librubberband --enable-libshine --enable-libsnappy --enable-libsoxr --enable-libspeex --enable-libsrt --enable-libssh --enable-libsvtav1 --enable-libtheora --enable-libtwolame --enable-libvidstab --enable-libvorbis --enable-libvpx --enable-libwebp --enable-libx265 --enable-libxml2 --enable-libxvid --enable-libzimg --enable-libzmq --enable-libzvbi --enable-lv2 --enable-omx --enable-openal --enable-opencl --enable-opengl --enable-sdl2 --disable-sndio --enable-libjxl --enable-pocketsphinx --enable-librsvg --enable-libvpl --disable-libmfx --enable-libdc1394 --enable-libdrm --enable-libiec61883 --enable-chromaprint --enable-frei0r --enable-libx264 --enable-libplacebo --enable-librav1e --enable-shared --enable-version3 --disable-doc --disable-programs --disable-static --enable-libaribb24 --enable-libopencore_amrnb --enable-libopencore_amrwb --enable-libtesseract --enable-libvo_amrwbenc --enable-libsmbclient\n",
      "  libavutil      58.  2.100 / 58.  2.100\n",
      "  libavcodec     60.  3.100 / 60.  3.100\n",
      "  libavformat    60.  3.100 / 60.  3.100\n",
      "  libavdevice    60.  1.100 / 60.  1.100\n",
      "  libavfilter     9.  3.100 /  9.  3.100\n",
      "  libswscale      7.  1.100 /  7.  1.100\n",
      "  libswresample   4. 10.100 /  4. 10.100\n",
      "  libpostproc    57.  1.100 / 57.  1.100\n",
      "Input #0, mov,mp4,m4a,3gp,3g2,mj2, from '../data/input/audio/guided_meditations/audiodharma_dharmaseed/Body%20scan.m4a':\n",
      "  Metadata:\n",
      "    major_brand     : 3gp4\n",
      "    minor_version   : 0\n",
      "    compatible_brands: isom3gp4\n",
      "    creation_time   : 2019-08-20T15:57:49.000000Z\n",
      "  Duration: 01:21:34.19, start: 0.000000, bitrate: 129 kb/s\n",
      "  Stream #0:0[0x1](eng): Audio: aac (LC) (mp4a / 0x6134706D), 44100 Hz, mono, fltp, 128 kb/s (default)\n",
      "    Metadata:\n",
      "      creation_time   : 2019-08-20T15:57:49.000000Z\n",
      "      handler_name    : SoundHandle\n",
      "      vendor_id       : [0][0][0][0]\n",
      "Stream mapping:\n",
      "  Stream #0:0 -> #0:0 (aac (native) -> mp3 (libmp3lame))\n",
      "Press [q] to stop, [?] for help\n",
      "Output #0, mp3, to '../data/input/audio/guided_meditations/audiodharma_dharmaseed/Body%20scan.mp3':\n",
      "  Metadata:\n",
      "    major_brand     : 3gp4\n",
      "    minor_version   : 0\n",
      "    compatible_brands: isom3gp4\n",
      "    TSSE            : Lavf60.3.100\n",
      "  Stream #0:0(eng): Audio: mp3, 44100 Hz, mono, fltp (default)\n",
      "    Metadata:\n",
      "      creation_time   : 2019-08-20T15:57:49.000000Z\n",
      "      handler_name    : SoundHandle\n",
      "      vendor_id       : [0][0][0][0]\n",
      "      encoder         : Lavc60.3.100 libmp3lame\n",
      "size=       0kB time=-577014:32:22.77 bitrate=  -0.0kbits/s speed=N/A    \r"
     ]
    },
    {
     "name": "stdout",
     "output_type": "stream",
     "text": [
      "Converted Brahma%20Viharas.m4a to MP3 format.\n"
     ]
    },
    {
     "name": "stderr",
     "output_type": "stream",
     "text": [
      "size=   38237kB time=01:21:34.16 bitrate=  64.0kbits/s speed= 143x    \n",
      "video:0kB audio:38237kB subtitle:0kB other streams:0kB global headers:0kB muxing overhead: 0.000815%\n",
      "ffmpeg version 6.0-6ubuntu1 Copyright (c) 2000-2023 the FFmpeg developers\n",
      "  built with gcc 13 (Ubuntu 13.2.0-2ubuntu1)\n",
      "  configuration: --prefix=/usr --extra-version=6ubuntu1 --toolchain=hardened --libdir=/usr/lib/x86_64-linux-gnu --incdir=/usr/include/x86_64-linux-gnu --arch=amd64 --enable-gpl --disable-stripping --enable-gnutls --enable-ladspa --enable-libaom --enable-libass --enable-libbluray --enable-libbs2b --enable-libcaca --enable-libcdio --enable-libcodec2 --enable-libdav1d --enable-libflite --enable-libfontconfig --enable-libfreetype --enable-libfribidi --enable-libglslang --enable-libgme --enable-libgsm --enable-libjack --enable-libmp3lame --enable-libmysofa --enable-libopenjpeg --enable-libopenmpt --enable-libopus --enable-libpulse --enable-librabbitmq --enable-librist --enable-librubberband --enable-libshine --enable-libsnappy --enable-libsoxr --enable-libspeex --enable-libsrt --enable-libssh --enable-libsvtav1 --enable-libtheora --enable-libtwolame --enable-libvidstab --enable-libvorbis --enable-libvpx --enable-libwebp --enable-libx265 --enable-libxml2 --enable-libxvid --enable-libzimg --enable-libzmq --enable-libzvbi --enable-lv2 --enable-omx --enable-openal --enable-opencl --enable-opengl --enable-sdl2 --disable-sndio --enable-libjxl --enable-pocketsphinx --enable-librsvg --enable-libvpl --disable-libmfx --enable-libdc1394 --enable-libdrm --enable-libiec61883 --enable-chromaprint --enable-frei0r --enable-libx264 --enable-libplacebo --enable-librav1e --enable-shared\n",
      "  WARNING: library configuration mismatch\n",
      "  avcodec     configuration: --prefix=/usr --extra-version=6ubuntu1 --toolchain=hardened --libdir=/usr/lib/x86_64-linux-gnu --incdir=/usr/include/x86_64-linux-gnu --arch=amd64 --enable-gpl --disable-stripping --enable-gnutls --enable-ladspa --enable-libaom --enable-libass --enable-libbluray --enable-libbs2b --enable-libcaca --enable-libcdio --enable-libcodec2 --enable-libdav1d --enable-libflite --enable-libfontconfig --enable-libfreetype --enable-libfribidi --enable-libglslang --enable-libgme --enable-libgsm --enable-libjack --enable-libmp3lame --enable-libmysofa --enable-libopenjpeg --enable-libopenmpt --enable-libopus --enable-libpulse --enable-librabbitmq --enable-librist --enable-librubberband --enable-libshine --enable-libsnappy --enable-libsoxr --enable-libspeex --enable-libsrt --enable-libssh --enable-libsvtav1 --enable-libtheora --enable-libtwolame --enable-libvidstab --enable-libvorbis --enable-libvpx --enable-libwebp --enable-libx265 --enable-libxml2 --enable-libxvid --enable-libzimg --enable-libzmq --enable-libzvbi --enable-lv2 --enable-omx --enable-openal --enable-opencl --enable-opengl --enable-sdl2 --disable-sndio --enable-libjxl --enable-pocketsphinx --enable-librsvg --enable-libvpl --disable-libmfx --enable-libdc1394 --enable-libdrm --enable-libiec61883 --enable-chromaprint --enable-frei0r --enable-libx264 --enable-libplacebo --enable-librav1e --enable-shared --enable-version3 --disable-doc --disable-programs --disable-static --enable-libaribb24 --enable-libopencore_amrnb --enable-libopencore_amrwb --enable-libtesseract --enable-libvo_amrwbenc --enable-libsmbclient\n",
      "  libavutil      58.  2.100 / 58.  2.100\n",
      "  libavcodec     60.  3.100 / 60.  3.100\n",
      "  libavformat    60.  3.100 / 60.  3.100\n",
      "  libavdevice    60.  1.100 / 60.  1.100\n",
      "  libavfilter     9.  3.100 /  9.  3.100\n",
      "  libswscale      7.  1.100 /  7.  1.100\n",
      "  libswresample   4. 10.100 /  4. 10.100\n",
      "  libpostproc    57.  1.100 / 57.  1.100\n",
      "Input #0, mov,mp4,m4a,3gp,3g2,mj2, from '../data/input/audio/guided_meditations/audiodharma_dharmaseed/Metta%20soup%20sharing.m4a':\n",
      "  Metadata:\n",
      "    major_brand     : 3gp4\n",
      "    minor_version   : 0\n",
      "    compatible_brands: isom3gp4\n",
      "    creation_time   : 2019-08-26T01:37:32.000000Z\n",
      "  Duration: 00:19:41.68, start: 0.000000, bitrate: 129 kb/s\n",
      "  Stream #0:0[0x1](eng): Audio: aac (LC) (mp4a / 0x6134706D), 44100 Hz, mono, fltp, 128 kb/s (default)\n",
      "    Metadata:\n",
      "      creation_time   : 2019-08-26T01:37:32.000000Z\n",
      "      handler_name    : SoundHandle\n",
      "      vendor_id       : [0][0][0][0]\n",
      "Stream mapping:\n",
      "  Stream #0:0 -> #0:0 (aac (native) -> mp3 (libmp3lame))\n",
      "Press [q] to stop, [?] for help\n",
      "Output #0, mp3, to '../data/input/audio/guided_meditations/audiodharma_dharmaseed/Metta%20soup%20sharing.mp3':\n",
      "  Metadata:\n",
      "    major_brand     : 3gp4\n",
      "    minor_version   : 0\n",
      "    compatible_brands: isom3gp4\n",
      "    TSSE            : Lavf60.3.100\n",
      "  Stream #0:0(eng): Audio: mp3, 44100 Hz, mono, fltp (default)\n",
      "    Metadata:\n",
      "      creation_time   : 2019-08-26T01:37:32.000000Z\n",
      "      handler_name    : SoundHandle\n",
      "      vendor_id       : [0][0][0][0]\n",
      "      encoder         : Lavc60.3.100 libmp3lame\n",
      "size=       0kB time=-577014:32:22.77 bitrate=  -0.0kbits/s speed=N/A    \r"
     ]
    },
    {
     "name": "stdout",
     "output_type": "stream",
     "text": [
      "Converted Body%20scan.m4a to MP3 format.\n",
      "Skipped Discourse%20on%20the%20gradual%20training.m4a, MP3 file already exists.\n",
      "Skipped 2nd%20to%204th%20jhanna%203.m4a, MP3 file already exists.\n",
      "Skipped Jhannas%205%20to%208.m4a, MP3 file already exists.\n",
      "Skipped Emptiness%20explanation%20(really%20good!)%20&%20guided%20meta.m4a, MP3 file already exists.\n"
     ]
    },
    {
     "name": "stderr",
     "output_type": "stream",
     "text": [
      "size=    9233kB time=00:19:41.67 bitrate=  64.0kbits/s speed= 153x    \n",
      "video:0kB audio:9232kB subtitle:0kB other streams:0kB global headers:0kB muxing overhead: 0.003374%\n",
      "ffmpeg version 6.0-6ubuntu1 Copyright (c) 2000-2023 the FFmpeg developers\n",
      "  built with gcc 13 (Ubuntu 13.2.0-2ubuntu1)\n",
      "  configuration: --prefix=/usr --extra-version=6ubuntu1 --toolchain=hardened --libdir=/usr/lib/x86_64-linux-gnu --incdir=/usr/include/x86_64-linux-gnu --arch=amd64 --enable-gpl --disable-stripping --enable-gnutls --enable-ladspa --enable-libaom --enable-libass --enable-libbluray --enable-libbs2b --enable-libcaca --enable-libcdio --enable-libcodec2 --enable-libdav1d --enable-libflite --enable-libfontconfig --enable-libfreetype --enable-libfribidi --enable-libglslang --enable-libgme --enable-libgsm --enable-libjack --enable-libmp3lame --enable-libmysofa --enable-libopenjpeg --enable-libopenmpt --enable-libopus --enable-libpulse --enable-librabbitmq --enable-librist --enable-librubberband --enable-libshine --enable-libsnappy --enable-libsoxr --enable-libspeex --enable-libsrt --enable-libssh --enable-libsvtav1 --enable-libtheora --enable-libtwolame --enable-libvidstab --enable-libvorbis --enable-libvpx --enable-libwebp --enable-libx265 --enable-libxml2 --enable-libxvid --enable-libzimg --enable-libzmq --enable-libzvbi --enable-lv2 --enable-omx --enable-openal --enable-opencl --enable-opengl --enable-sdl2 --disable-sndio --enable-libjxl --enable-pocketsphinx --enable-librsvg --enable-libvpl --disable-libmfx --enable-libdc1394 --enable-libdrm --enable-libiec61883 --enable-chromaprint --enable-frei0r --enable-libx264 --enable-libplacebo --enable-librav1e --enable-shared\n",
      "  WARNING: library configuration mismatch\n",
      "  avcodec     configuration: --prefix=/usr --extra-version=6ubuntu1 --toolchain=hardened --libdir=/usr/lib/x86_64-linux-gnu --incdir=/usr/include/x86_64-linux-gnu --arch=amd64 --enable-gpl --disable-stripping --enable-gnutls --enable-ladspa --enable-libaom --enable-libass --enable-libbluray --enable-libbs2b --enable-libcaca --enable-libcdio --enable-libcodec2 --enable-libdav1d --enable-libflite --enable-libfontconfig --enable-libfreetype --enable-libfribidi --enable-libglslang --enable-libgme --enable-libgsm --enable-libjack --enable-libmp3lame --enable-libmysofa --enable-libopenjpeg --enable-libopenmpt --enable-libopus --enable-libpulse --enable-librabbitmq --enable-librist --enable-librubberband --enable-libshine --enable-libsnappy --enable-libsoxr --enable-libspeex --enable-libsrt --enable-libssh --enable-libsvtav1 --enable-libtheora --enable-libtwolame --enable-libvidstab --enable-libvorbis --enable-libvpx --enable-libwebp --enable-libx265 --enable-libxml2 --enable-libxvid --enable-libzimg --enable-libzmq --enable-libzvbi --enable-lv2 --enable-omx --enable-openal --enable-opencl --enable-opengl --enable-sdl2 --disable-sndio --enable-libjxl --enable-pocketsphinx --enable-librsvg --enable-libvpl --disable-libmfx --enable-libdc1394 --enable-libdrm --enable-libiec61883 --enable-chromaprint --enable-frei0r --enable-libx264 --enable-libplacebo --enable-librav1e --enable-shared --enable-version3 --disable-doc --disable-programs --disable-static --enable-libaribb24 --enable-libopencore_amrnb --enable-libopencore_amrwb --enable-libtesseract --enable-libvo_amrwbenc --enable-libsmbclient\n",
      "  libavutil      58.  2.100 / 58.  2.100\n",
      "  libavcodec     60.  3.100 / 60.  3.100\n",
      "  libavformat    60.  3.100 / 60.  3.100\n",
      "  libavdevice    60.  1.100 / 60.  1.100\n",
      "  libavfilter     9.  3.100 /  9.  3.100\n",
      "  libswscale      7.  1.100 /  7.  1.100\n",
      "  libswresample   4. 10.100 /  4. 10.100\n",
      "  libpostproc    57.  1.100 / 57.  1.100\n",
      "Input #0, mov,mp4,m4a,3gp,3g2,mj2, from '../data/input/audio/guided_meditations/audiodharma_dharmaseed/Closing%20q&a.m4a':\n",
      "  Metadata:\n",
      "    major_brand     : 3gp4\n",
      "    minor_version   : 0\n",
      "    compatible_brands: isom3gp4\n",
      "    creation_time   : 2019-08-28T15:57:45.000000Z\n",
      "  Duration: 00:35:35.63, start: 0.000000, bitrate: 129 kb/s\n",
      "  Stream #0:0[0x1](eng): Audio: aac (LC) (mp4a / 0x6134706D), 44100 Hz, mono, fltp, 128 kb/s (default)\n",
      "    Metadata:\n",
      "      creation_time   : 2019-08-28T15:57:45.000000Z\n",
      "      handler_name    : SoundHandle\n",
      "      vendor_id       : [0][0][0][0]\n",
      "Stream mapping:\n",
      "  Stream #0:0 -> #0:0 (aac (native) -> mp3 (libmp3lame))\n",
      "Press [q] to stop, [?] for help\n",
      "Output #0, mp3, to '../data/input/audio/guided_meditations/audiodharma_dharmaseed/Closing%20q&a.mp3':\n",
      "  Metadata:\n",
      "    major_brand     : 3gp4\n",
      "    minor_version   : 0\n",
      "    compatible_brands: isom3gp4\n",
      "    TSSE            : Lavf60.3.100\n",
      "  Stream #0:0(eng): Audio: mp3, 44100 Hz, mono, fltp (default)\n",
      "    Metadata:\n",
      "      creation_time   : 2019-08-28T15:57:45.000000Z\n",
      "      handler_name    : SoundHandle\n",
      "      vendor_id       : [0][0][0][0]\n",
      "      encoder         : Lavc60.3.100 libmp3lame\n",
      "size=       0kB time=-577014:32:22.77 bitrate=  -0.0kbits/s speed=N/A    \r"
     ]
    },
    {
     "name": "stdout",
     "output_type": "stream",
     "text": [
      "Converted Metta%20soup%20sharing.m4a to MP3 format.\n",
      "Skipped L.%20Great%20advice%20on%20body%20awareness!.m4a, MP3 file already exists.\n"
     ]
    },
    {
     "name": "stderr",
     "output_type": "stream",
     "text": [
      "size=   16384kB time=00:35:07.46 bitrate=  63.7kbits/s speed= 124x    \r"
     ]
    },
    {
     "name": "stdout",
     "output_type": "stream",
     "text": [
      "Converted Closing%20q&a.m4a to MP3 format.\n",
      "Skipped Impermanence%20&%20goodness%20reflection_001.m4a, MP3 file already exists.\n",
      "Skipped Dependant%20org%20&%20jhana%20summery.m4a, MP3 file already exists.\n",
      "Conversion complete.\n"
     ]
    },
    {
     "name": "stderr",
     "output_type": "stream",
     "text": [
      "size=   16686kB time=00:35:35.61 bitrate=  64.0kbits/s speed= 124x    \n",
      "video:0kB audio:16685kB subtitle:0kB other streams:0kB global headers:0kB muxing overhead: 0.001867%\n"
     ]
    }
   ],
   "source": [
    "import subprocess\n",
    "import os\n",
    "\n",
    "# Define the directory containing .m4a files\n",
    "directory = \"../data/input/audio/guided_meditations/audiodharma_dharmaseed/\"\n",
    "\n",
    "# Iterate over files in the specified directory\n",
    "for filename in os.listdir(directory):\n",
    "    if filename.endswith(\".m4a\"):\n",
    "        # Construct full file path\n",
    "        m4a_file = os.path.join(directory, filename)\n",
    "        # Define the output .mp3 file path\n",
    "        mp3_file = os.path.join(directory, filename[:-4] + '.mp3')\n",
    "        \n",
    "        # Check if the .mp3 file already exists\n",
    "        if not os.path.exists(mp3_file):\n",
    "            # Construct the ffmpeg command for conversion\n",
    "            command = ['ffmpeg', '-i', m4a_file, '-acodec', 'libmp3lame', mp3_file]\n",
    "\n",
    "            # Execute the conversion command\n",
    "            subprocess.run(command)\n",
    "\n",
    "            print(f\"Converted {filename} to MP3 format.\")\n",
    "        else:\n",
    "            print(f\"Skipped {filename}, MP3 file already exists.\")\n",
    "            \n",
    "print(\"Conversion complete.\")\n",
    "\n"
   ]
  },
  {
   "cell_type": "markdown",
   "metadata": {},
   "source": [
    "# Convert .epub to .txt"
   ]
  },
  {
   "cell_type": "code",
   "execution_count": 14,
   "metadata": {},
   "outputs": [],
   "source": [
    "import ebooklib\n",
    "from ebooklib import epub\n",
    "from bs4 import BeautifulSoup\n",
    "import os\n",
    "\n",
    "def epub_to_txt(source_folder, target_folder):\n",
    "    for file in os.listdir(source_folder):\n",
    "        if file.endswith(\".epub\"):\n",
    "            book_path = os.path.join(source_folder, file)\n",
    "            book = epub.read_epub(book_path)\n",
    "            content = []\n",
    "\n",
    "            for item in book.get_items():\n",
    "                if item.get_type() == ebooklib.ITEM_DOCUMENT:\n",
    "                    soup = BeautifulSoup(item.get_content(), 'html.parser')\n",
    "                    text = soup.get_text(separator=' ', strip=True)\n",
    "                    content.append(text)\n",
    "\n",
    "            txt_filename = os.path.splitext(file)[0] + '.txt'\n",
    "            with open(os.path.join(target_folder, txt_filename), 'w', encoding='utf-8') as txt_file:\n",
    "                txt_file.write('\\n'.join(content))\n",
    "\n",
    "source_folder = '../data/input/text/books'\n",
    "target_folder = '../data/input/text/books_converted'\n",
    "epub_to_txt(source_folder, target_folder)\n"
   ]
  },
  {
   "cell_type": "markdown",
   "metadata": {},
   "source": [
    "# Convert .pdf to .txt"
   ]
  },
  {
   "cell_type": "code",
   "execution_count": 15,
   "metadata": {},
   "outputs": [],
   "source": [
    "import fitz  # PyMuPDF\n",
    "import os\n",
    "\n",
    "def pdf_to_txt(source_folder, target_folder):\n",
    "    for file in os.listdir(source_folder):\n",
    "        if file.endswith(\".pdf\"):\n",
    "            pdf_path = os.path.join(source_folder, file)\n",
    "            doc = fitz.open(pdf_path)\n",
    "            text = ''\n",
    "\n",
    "            for page in doc:\n",
    "                text += page.get_text()\n",
    "\n",
    "            txt_filename = os.path.splitext(file)[0] + '.txt'\n",
    "            with open(os.path.join(target_folder, txt_filename), 'w', encoding='utf-8') as txt_file:\n",
    "                txt_file.write(text)\n",
    "\n",
    "source_folder = '../data/input/text/books'\n",
    "target_folder = '../data/input/text/books_converted'\n",
    "pdf_to_txt(source_folder, target_folder)\n"
   ]
  },
  {
   "cell_type": "markdown",
   "metadata": {},
   "source": [
    "# Convert .html to .txt"
   ]
  },
  {
   "cell_type": "code",
   "execution_count": 3,
   "metadata": {},
   "outputs": [
    {
     "data": {
      "text/plain": [
       "['Section0042.txt',\n",
       " 'Section0110.txt',\n",
       " 'cunmh2_The only path for the purification of insight.txt',\n",
       " 'df78s9_Leigh Brasington Instruction for Entering Jhana.txt',\n",
       " 'Section0078.txt',\n",
       " 'Section0059.txt',\n",
       " 'meditations.txt',\n",
       " 'khs01v_Ajahn Chah - Right ViewThe Place Of Coolness.txt',\n",
       " 'lhtrgo_Nimitta.txt',\n",
       " 'Section0027.txt',\n",
       " 'Section0031.txt',\n",
       " 'an04.124.than.txt',\n",
       " 'Section0041.txt',\n",
       " 'ei9edw_What is a Jhana Commentaries vs Suttas - Meaning.txt',\n",
       " 'Section0102.txt',\n",
       " 'Section0024.txt',\n",
       " 'elgkfi_Mindfulness in Similes in Early Buddhist Texts.txt',\n",
       " 'Section0044.txt',\n",
       " '14zd2wc_The Thirteen Dhutanga Practices of a Buddhist Monk.txt',\n",
       " 'index.txt',\n",
       " 'concmind.txt',\n",
       " 'w6p2mc_Trouble with the Second Jhana.txt',\n",
       " 'Section0029.txt',\n",
       " 'an09.044.than.txt',\n",
       " 'Section0003.txt',\n",
       " 'udtopr_A guide to the samatha Jhanas Part 1 The form Jhan...txt',\n",
       " 'Section0023.txt',\n",
       " 't6o723_Help - Piti andor Sukha outside of meditation.txt',\n",
       " 'an04.170.than.txt',\n",
       " '15cr417_Conceit Fetter.txt',\n",
       " 'Section0017.txt',\n",
       " 'Section0083.txt',\n",
       " 'sn35.204.than.txt',\n",
       " 'Section0047.txt',\n",
       " 'Section0020.txt',\n",
       " 'fy9tor_Calming the Thoughts  Ajahn Nissarano  5 April 202...txt',\n",
       " 'jhananumbers.txt',\n",
       " 'Section0088.txt',\n",
       " 'Section0006.txt',\n",
       " 'Section0061.txt',\n",
       " 'cq1i05_Joy First Jhana.txt',\n",
       " 'an10.071.than.txt',\n",
       " '152yrdg_The Jhanas Alone Led to the Buddhas Awakening.txt',\n",
       " 'Section0004.txt',\n",
       " 'hq3w1b_How to Jhana - a good explanation.txt',\n",
       " 'jhana.txt',\n",
       " '135rnwe_Can Leigh Brasingtons jhnas protect us from extre...txt',\n",
       " 'e91r75_The Method for Jhana - Ajahn Brahm.txt',\n",
       " '2rtv8l_Academic research using fMRI and EEG during jhanic...txt',\n",
       " 'Fun_andGames.txt',\n",
       " 'Section0039.txt',\n",
       " 'Section0008.txt',\n",
       " 'df79th_How to enter the eight Jhanas or stages of meditat...txt',\n",
       " 'Samadhi.txt',\n",
       " 'inmind.txt',\n",
       " 'an04.041.than.txt',\n",
       " 'Section0022.txt',\n",
       " 'an03.073.than.txt',\n",
       " '3rd85e_1st Jhana talk by Ayya Khema.txt',\n",
       " 'mn.106.than.txt',\n",
       " 'sn22.005.than.txt',\n",
       " 'Section0000.txt',\n",
       " '2rtkj3_Jhana practice resources - books.txt',\n",
       " '3vydb3_How do I know if Im in a meditative state of mind ...txt',\n",
       " 'Section0005.txt',\n",
       " 'Section0036.txt',\n",
       " 'Section0073.txt',\n",
       " 'Section0045.txt',\n",
       " 'Thinking about Jhna.txt',\n",
       " 'Section0013.txt',\n",
       " 'fp7ye0_Bhante Dhammavuddho Meditation in Our Daily Life.txt',\n",
       " '112frsb_At what stage am I.txt',\n",
       " 'Section0070.txt',\n",
       " '1116hqg_how many hours do you meditate daily in a typical ...txt',\n",
       " 'themes.txt',\n",
       " 'Section0113.txt',\n",
       " 'Section0009.txt',\n",
       " 'mn.111.than.txt',\n",
       " 'Section0032.txt',\n",
       " 'Section0118.txt',\n",
       " 'Section0072.txt',\n",
       " 'Section0054.txt',\n",
       " '14ijjfy_Does nimitta arise before jhana.txt',\n",
       " 'Section0018.txt',\n",
       " 'Section0035.txt',\n",
       " 'cnc8ch_The future of rJhana.txt',\n",
       " 'craft.txt',\n",
       " 'j86w9x_Jhana Scientific Studies.txt',\n",
       " 'Section0007.txt',\n",
       " 'meditations4.txt',\n",
       " 'Section0019.txt',\n",
       " 'Section0033.txt',\n",
       " 'Section0105.txt',\n",
       " 'Section0038.txt',\n",
       " 'Section0074.txt',\n",
       " 'ufzjsl_The Path to Inner Peace - PART 02 NPNASATI MEDI...txt',\n",
       " 'Section0040.txt',\n",
       " 'an02.030.than.txt',\n",
       " 'onetool.txt',\n",
       " 'meditations2.txt',\n",
       " '10pkxsr_Energy seems to get stuck in my throat.txt',\n",
       " 'uj2co0_Guided meditation for Jhana 1.txt',\n",
       " 'Section0037.txt',\n",
       " 'Section0057.txt',\n",
       " 'Section0021.txt',\n",
       " 'Section0010.txt',\n",
       " 'cob6hq_What is Jhana By Ven Henepola Gunaratana.txt',\n",
       " 'lyiyph_Specific questions about piti.txt',\n",
       " 'Section0026.txt',\n",
       " 'ii0kz4_See the Truth through Stillness.txt',\n",
       " 'crds8m_A Critical Analysis of the Jhanas in Theravada Bud...txt',\n",
       " 'Section0034.txt',\n",
       " '11eh264_Brother Daniel.txt',\n",
       " 'sn02.007.than.txt',\n",
       " 'wheel351.txt',\n",
       " 'Section0016.txt',\n",
       " 'Mindfulness_ofBreathing.txt',\n",
       " 'bvqs1g_Instructions for Entering Jhana by Leigh Brasingto...txt',\n",
       " '3rdflg_Ajahn Brahm - 2 hour jhana talk from retreat.txt',\n",
       " 'concentration.txt',\n",
       " 'g46590_Addicted to pornography Asubha meditation is your ...txt',\n",
       " 'wjh96n_Trouble with the first jhana.txt',\n",
       " '192r36n_Can Jhana arise from an idealogic thoughts rather ...txt',\n",
       " 'Section0028.txt',\n",
       " '1afdvx1_Breath awareness practice during sickness.txt',\n",
       " 'okysj5_For those who have attained to the 4th Jhana.txt',\n",
       " 'Section0071.txt',\n",
       " 'Section0025.txt',\n",
       " 'Section0052.txt',\n",
       " '14n1cs3_Anapanasati Sutta - Mind 9th thru 11th steps  Two ...txt',\n",
       " 'fy9vb8_BSWA is doing daily guided meditations on their Yo...txt',\n",
       " '15eovk8_Sati and jhana.txt',\n",
       " 'Section0064.txt',\n",
       " 'dwysr8_Is there only one method to enter jhana I dont fol...txt',\n",
       " 'Section0065.txt',\n",
       " 'an04.123.than.txt',\n",
       " 'Section0014.txt',\n",
       " 'Section0050.txt',\n",
       " 'Section0030.txt',\n",
       " 'Section0075.txt',\n",
       " 'Section0015.txt',\n",
       " 'd70vos_What are jhanas with Michael Taft.txt',\n",
       " '4ad5p1_Jhana for Noobs - posted in rBuddhism.txt',\n",
       " 'getb49_Happy Vesak.txt',\n",
       " '13z4e90_Does anyone have experience of training with the S...txt',\n",
       " 'meditations3.txt',\n",
       " 'Dhyana_in_Buddhism.txt',\n",
       " 'Section0053.txt',\n",
       " 'Section0051.txt',\n",
       " 'r0hwpq_Jhanas factors reconsided.txt',\n",
       " 'colh8e_The 9 Jhanas.txt',\n",
       " 'meditations5.txt',\n",
       " 'Section0011.txt',\n",
       " 'Section0046.txt',\n",
       " 'an05.176.than.txt',\n",
       " 'Contents.txt',\n",
       " 'crdn5a_The Jhanas in Theravadan Buddhist Meditation.txt',\n",
       " 'an05.027.than.txt',\n",
       " 'Section0049.txt',\n",
       " 'Section0080.txt',\n",
       " 'cp2ofa_Using Metta Loving Kindness to enter jhanas.txt',\n",
       " 'Section0012.txt',\n",
       " 'Section0090.txt',\n",
       " 'Samatha-vipassana.txt',\n",
       " 'cob5nt_The Jhanas  Seven Steps to Heaven and One Beyond b...txt',\n",
       " 'Section0092.txt',\n",
       " '15f097n_Not sure.txt',\n",
       " 'Section0048.txt',\n",
       " 'xp1keq_Did I experience piti.txt',\n",
       " 'k3w4p4_Stream entry is possible for laypersons - Luangpor...txt',\n",
       " 'Section0079.txt',\n",
       " 'an09.042.than.txt',\n",
       " 'Section0056.txt',\n",
       " 'sn07.018.than.txt',\n",
       " '10aezg1_Jhana Club.txt',\n",
       " 'Section0043.txt',\n",
       " 'an05.028.than.txt']"
      ]
     },
     "execution_count": 3,
     "metadata": {},
     "output_type": "execute_result"
    }
   ],
   "source": [
    "import os\n",
    "from bs4 import BeautifulSoup\n",
    "\n",
    "# Define the source and target directories\n",
    "source_dir = '../data/input/text/web_html'\n",
    "target_dir = '../data/input/text/web_txt'\n",
    "\n",
    "# Ensure the target directory exists\n",
    "os.makedirs(target_dir, exist_ok=True)\n",
    "\n",
    "# Iterate through all files in the source directory\n",
    "for filename in os.listdir(source_dir):\n",
    "    if filename.endswith('.html'):\n",
    "        # Construct the full path to the source file\n",
    "        source_file_path = os.path.join(source_dir, filename)\n",
    "\n",
    "        # Read the HTML content\n",
    "        with open(source_file_path, 'r', encoding='utf-8') as file:\n",
    "            html_content = file.read()\n",
    "        \n",
    "        # Parse the HTML content and extract text\n",
    "        soup = BeautifulSoup(html_content, 'html.parser')\n",
    "        text_content = soup.get_text(separator='\\n', strip=True)\n",
    "\n",
    "        # Construct the target file path with .txt extension\n",
    "        target_file_path = os.path.join(target_dir, os.path.splitext(filename)[0] + '.txt')\n",
    "\n",
    "        # Write the text content to the target file\n",
    "        with open(target_file_path, 'w', encoding='utf-8') as file:\n",
    "            file.write(text_content)\n",
    "\n",
    "# List the converted files to confirm\n",
    "converted_files = os.listdir(target_dir)\n",
    "converted_files\n"
   ]
  }
 ],
 "metadata": {
  "kernelspec": {
   "display_name": "jhana_ai",
   "language": "python",
   "name": "python3"
  },
  "language_info": {
   "codemirror_mode": {
    "name": "ipython",
    "version": 3
   },
   "file_extension": ".py",
   "mimetype": "text/x-python",
   "name": "python",
   "nbconvert_exporter": "python",
   "pygments_lexer": "ipython3",
   "version": "3.10.13"
  }
 },
 "nbformat": 4,
 "nbformat_minor": 2
}
